<?xml version="1.0" standalone="no"?>
<svg xmlns="http://www.w3.org/2000/svg" viewBox="0 0 426.63200000000006 53" width="426.63200000000006" height="53"><rect fill="none" stroke="#ff6506" stroke-width="3" width="423.63200000000006" height="50" x="1.5" y="1.5"></rect><path fill="#00005f" fill-rule="nonzero" d="M6.24 17.09Q4.37 17.09 2.65 16.49Q0.94 15.89 0 14.90L0 14.90L0.70 13.54Q1.61 14.45 3.12 15.01Q4.63 15.58 6.24 15.58L6.24 15.58Q8.50 15.58 9.62 14.75Q10.75 13.92 10.75 12.60L10.75 12.60Q10.75 11.59 10.14 10.99Q9.53 10.39 8.64 10.07Q7.75 9.74 6.17 9.36L6.17 9.36Q4.27 8.88 3.14 8.44Q2.02 7.99 1.21 7.08Q0.41 6.17 0.41 4.61L0.41 4.61Q0.41 3.34 1.08 2.29Q1.75 1.25 3.14 0.62Q4.54 0 6.60 0L6.60 0Q8.04 0 9.42 0.40Q10.80 0.79 11.81 1.49L11.81 1.49L11.21 2.90Q10.15 2.21 8.95 1.86Q7.75 1.51 6.60 1.51L6.60 1.51Q4.39 1.51 3.28 2.36Q2.16 3.22 2.16 4.56L2.16 4.56Q2.16 5.57 2.77 6.18Q3.38 6.79 4.31 7.12Q5.23 7.44 6.79 7.82L6.79 7.82Q8.64 8.28 9.78 8.72Q10.92 9.17 11.71 10.07Q12.50 10.97 12.50 12.50L12.50 12.50Q12.50 13.78 11.82 14.82Q11.14 15.86 9.72 16.48Q8.30 17.09 6.24 17.09L6.24 17.09ZM23.26 1.68L19.85 1.68L19.85 15.41L23.26 15.41L23.26 16.94L14.69 16.94L14.69 15.41L18.10 15.41L18.10 1.68L14.69 1.68L14.69 0.14L23.26 0.14L23.26 1.68ZM33.94 1.68L30.53 1.68L30.53 15.41L33.94 15.41L33.94 16.94L25.37 16.94L25.37 15.41L28.78 15.41L28.78 1.68L25.37 1.68L25.37 0.14L33.94 0.14L33.94 1.68ZM49.06 13.68L49.73 15.02Q48.70 16.01 46.98 16.55Q45.26 17.09 43.18 17.09L43.18 17.09Q40.97 17.09 39.42 16.49Q37.87 15.89 37.09 14.83Q36.31 13.78 36.31 12.41L36.31 12.41Q36.31 10.90 37.21 9.84Q38.11 8.78 39.58 8.38L39.58 8.38Q38.38 7.92 37.70 6.92Q37.03 5.93 37.03 4.58L37.03 4.58Q37.03 3.31 37.76 2.27Q38.50 1.22 39.97 0.61Q41.45 0 43.54 0L43.54 0Q45.07 0 46.52 0.35Q47.98 0.70 49.01 1.34L49.01 1.34L48.46 2.76Q46.25 1.51 43.61 1.51L43.61 1.51Q41.28 1.51 40.04 2.40Q38.81 3.29 38.81 4.70L38.81 4.70Q38.81 6.12 39.80 6.89Q40.80 7.66 42.62 7.66L42.62 7.66L46.80 7.66L46.80 9.19L42.55 9.19Q40.49 9.19 39.29 9.97Q38.09 10.75 38.09 12.29L38.09 12.29Q38.09 13.80 39.40 14.69Q40.70 15.58 43.25 15.58L43.25 15.58Q45.02 15.58 46.56 15.07Q48.10 14.57 49.06 13.68L49.06 13.68ZM52.94 16.94L52.94 0.14L54.72 0.14L54.72 15.41L64.13 15.41L64.13 16.94L52.94 16.94ZM65.47 11.18L65.47 9.70L71.76 9.70L71.76 11.18L65.47 11.18ZM80.57 17.09Q78.70 17.09 76.98 16.49Q75.26 15.89 74.33 14.90L74.33 14.90L75.02 13.54Q75.94 14.45 77.45 15.01Q78.96 15.58 80.57 15.58L80.57 15.58Q82.82 15.58 83.95 14.75Q85.08 13.92 85.08 12.60L85.08 12.60Q85.08 11.59 84.47 10.99Q83.86 10.39 82.97 10.07Q82.08 9.74 80.50 9.36L80.50 9.36Q78.60 8.88 77.47 8.44Q76.34 7.99 75.54 7.08Q74.74 6.17 74.74 4.61L74.74 4.61Q74.74 3.34 75.41 2.29Q76.08 1.25 77.47 0.62Q78.86 0 80.93 0L80.93 0Q82.37 0 83.75 0.40Q85.13 0.79 86.14 1.49L86.14 1.49L85.54 2.90Q84.48 2.21 83.28 1.86Q82.08 1.51 80.93 1.51L80.93 1.51Q78.72 1.51 77.60 2.36Q76.49 3.22 76.49 4.56L76.49 4.56Q76.49 5.57 77.10 6.18Q77.71 6.79 78.64 7.12Q79.56 7.44 81.12 7.82L81.12 7.82Q82.97 8.28 84.11 8.72Q85.25 9.17 86.04 10.07Q86.83 10.97 86.83 12.50L86.83 12.50Q86.83 13.78 86.15 14.82Q85.46 15.86 84.05 16.48Q82.63 17.09 80.57 17.09L80.57 17.09ZM97.58 1.68L94.18 1.68L94.18 15.41L97.58 15.41L97.58 16.94L89.02 16.94L89.02 15.41L92.42 15.41L92.42 1.68L89.02 1.68L89.02 0.14L97.58 0.14L97.58 1.68ZM106.01 17.09Q104.14 17.09 102.42 16.49Q100.70 15.89 99.77 14.90L99.77 14.90L100.46 13.54Q101.38 14.45 102.89 15.01Q104.40 15.58 106.01 15.58L106.01 15.58Q108.26 15.58 109.39 14.75Q110.52 13.92 110.52 12.60L110.52 12.60Q110.52 11.59 109.91 10.99Q109.30 10.39 108.41 10.07Q107.52 9.74 105.94 9.36L105.94 9.36Q104.04 8.88 102.91 8.44Q101.78 7.99 100.98 7.08Q100.18 6.17 100.18 4.61L100.18 4.61Q100.18 3.34 100.85 2.29Q101.52 1.25 102.91 0.62Q104.30 0 106.37 0L106.37 0Q107.81 0 109.19 0.40Q110.57 0.79 111.58 1.49L111.58 1.49L110.98 2.90Q109.92 2.21 108.72 1.86Q107.52 1.51 106.37 1.51L106.37 1.51Q104.16 1.51 103.04 2.36Q101.93 3.22 101.93 4.56L101.93 4.56Q101.93 5.57 102.54 6.18Q103.15 6.79 104.08 7.12Q105.00 7.44 106.56 7.82L106.56 7.82Q108.41 8.28 109.55 8.72Q110.69 9.17 111.48 10.07Q112.27 10.97 112.27 12.50L112.27 12.50Q112.27 13.78 111.59 14.82Q110.90 15.86 109.49 16.48Q108.07 17.09 106.01 17.09L106.01 17.09ZM127.18 1.85L126.53 3.24Q124.06 1.80 121.06 1.58L121.06 1.58L121.06 16.94L119.28 16.94L119.28 1.58Q116.33 1.78 113.78 3.24L113.78 3.24L113.14 1.85Q116.26 0 120.14 0L120.14 0Q124.10 0 127.18 1.85L127.18 1.85ZM140.95 13.68L141.62 15.02Q140.59 16.01 138.88 16.55Q137.16 17.09 135.07 17.09L135.07 17.09Q132.86 17.09 131.32 16.49Q129.77 15.89 128.99 14.83Q128.21 13.78 128.21 12.41L128.21 12.41Q128.21 10.90 129.11 9.84Q130.01 8.78 131.47 8.38L131.47 8.38Q130.27 7.92 129.60 6.92Q128.93 5.93 128.93 4.58L128.93 4.58Q128.93 3.31 129.66 2.27Q130.39 1.22 131.87 0.61Q133.34 0 135.43 0L135.43 0Q136.97 0 138.42 0.35Q139.87 0.70 140.90 1.34L140.90 1.34L140.35 2.76Q138.14 1.51 135.50 1.51L135.50 1.51Q133.18 1.51 131.94 2.40Q130.70 3.29 130.70 4.70L130.70 4.70Q130.70 6.12 131.70 6.89Q132.70 7.66 134.52 7.66L134.52 7.66L138.70 7.66L138.70 9.19L134.45 9.19Q132.38 9.19 131.18 9.97Q129.98 10.75 129.98 12.29L129.98 12.29Q129.98 13.80 131.29 14.69Q132.60 15.58 135.14 15.58L135.14 15.58Q136.92 15.58 138.46 15.07Q139.99 14.57 140.95 13.68L140.95 13.68ZM162.82 0Q165.70 0 167.30 1.66Q168.91 3.31 168.91 6.46L168.91 6.46L168.91 16.94L167.16 16.94L167.16 6.50Q167.16 4.06 165.92 2.82Q164.69 1.58 162.55 1.58L162.55 1.58Q160.30 1.58 159.02 2.89Q157.75 4.20 157.75 6.89L157.75 6.89L157.75 16.94L156.00 16.94L156.00 6.50Q156.00 4.06 154.80 2.82Q153.60 1.58 151.46 1.58L151.46 1.58Q149.18 1.58 147.90 2.89Q146.62 4.20 146.62 6.89L146.62 6.89L146.62 16.94L144.84 16.94L144.84 0.14L146.54 0.14L146.54 2.95Q147.24 1.51 148.61 0.76Q149.98 0 151.85 0L151.85 0Q153.82 0 155.22 0.83Q156.62 1.66 157.25 3.14L157.25 3.14Q157.97 1.61 159.42 0.80Q160.87 0 162.82 0L162.82 0ZM181.13 0Q184.39 0 186.28 1.91Q188.16 3.82 188.16 7.42L188.16 7.42L188.16 16.94L186.41 16.94L186.41 12L175.85 12L175.85 16.94L174.12 16.94L174.12 7.42Q174.12 3.82 176.00 1.91Q177.89 0 181.13 0L181.13 0ZM175.85 10.46L186.41 10.46L186.41 7.25Q186.41 4.44 185.02 3.01Q183.62 1.58 181.13 1.58L181.13 1.58Q178.63 1.58 177.24 3.01Q175.85 4.44 175.85 7.25L175.85 7.25L175.85 10.46ZM199.78 16.94L199.78 0.14L206.62 0.14Q209.28 0.14 211.32 1.21Q213.36 2.28 214.49 4.19Q215.62 6.10 215.62 8.54L215.62 8.54Q215.62 10.99 214.49 12.90Q213.36 14.81 211.32 15.88Q209.28 16.94 206.62 16.94L206.62 16.94L199.78 16.94ZM201.55 15.41L206.52 15.41Q208.73 15.41 210.38 14.53Q212.04 13.66 212.95 12.11Q213.86 10.56 213.86 8.54L213.86 8.54Q213.86 6.53 212.95 4.98Q212.04 3.43 210.38 2.56Q208.73 1.68 206.52 1.68L206.52 1.68L201.55 1.68L201.55 15.41ZM230.93 13.68L231.60 15.02Q230.57 16.01 228.85 16.55Q227.14 17.09 225.05 17.09L225.05 17.09Q222.84 17.09 221.29 16.49Q219.74 15.89 218.96 14.83Q218.18 13.78 218.18 12.41L218.18 12.41Q218.18 10.90 219.08 9.84Q219.98 8.78 221.45 8.38L221.45 8.38Q220.25 7.92 219.58 6.92Q218.90 5.93 218.90 4.58L218.90 4.58Q218.90 3.31 219.64 2.27Q220.37 1.22 221.84 0.61Q223.32 0 225.41 0L225.41 0Q226.94 0 228.40 0.35Q229.85 0.70 230.88 1.34L230.88 1.34L230.33 2.76Q228.12 1.51 225.48 1.51L225.48 1.51Q223.15 1.51 221.92 2.40Q220.68 3.29 220.68 4.70L220.68 4.70Q220.68 6.12 221.68 6.89Q222.67 7.66 224.50 7.66L224.50 7.66L228.67 7.66L228.67 9.19L224.42 9.19Q222.36 9.19 221.16 9.97Q219.96 10.75 219.96 12.29L219.96 12.29Q219.96 13.80 221.27 14.69Q222.58 15.58 225.12 15.58L225.12 15.58Q226.90 15.58 228.43 15.07Q229.97 14.57 230.93 13.68L230.93 13.68ZM247.99 1.68L244.58 1.68L244.58 15.41L247.99 15.41L247.99 16.94L239.42 16.94L239.42 15.41L242.83 15.41L242.83 1.68L239.42 1.68L239.42 0.14L247.99 0.14L247.99 1.68ZM259.18 0Q262.20 0 263.92 1.80Q265.63 3.60 265.63 6.94L265.63 6.94L265.63 16.94L263.86 16.94L263.86 6.98Q263.86 4.32 262.54 2.95Q261.22 1.58 258.84 1.58L258.84 1.58Q256.34 1.58 254.95 3.04Q253.56 4.49 253.56 7.39L253.56 7.39L253.56 16.94L251.78 16.94L251.78 0.14L253.49 0.14L253.49 2.98Q255.10 0 259.18 0L259.18 0ZM277.49 1.58Q275.02 1.58 273.80 2.70Q272.59 3.82 272.59 5.93L272.59 5.93L272.59 8.28L280.61 8.28L280.61 9.82L272.59 9.82L272.59 16.94L270.82 16.94L270.82 5.90Q270.82 3.14 272.54 1.57Q274.27 0 277.42 0L277.42 0Q280.46 0 282.31 1.32L282.31 1.32L281.66 2.78Q280.03 1.58 277.49 1.58L277.49 1.58ZM292.42 17.09Q289.92 17.09 287.89 15.97Q285.86 14.86 284.72 12.91Q283.58 10.97 283.58 8.54L283.58 8.54Q283.58 6.12 284.72 4.18Q285.86 2.23 287.89 1.12Q289.92 0 292.42 0L292.42 0Q294.91 0 296.92 1.10Q298.92 2.21 300.07 4.16Q301.22 6.12 301.22 8.54L301.22 8.54Q301.22 10.97 300.07 12.92Q298.92 14.88 296.92 15.98Q294.91 17.09 292.42 17.09L292.42 17.09ZM292.42 15.50Q294.41 15.50 296.02 14.60Q297.62 13.70 298.54 12.11Q299.45 10.51 299.45 8.54L299.45 8.54Q299.45 6.58 298.54 4.98Q297.62 3.38 296.02 2.48Q294.41 1.58 292.42 1.58L292.42 1.58Q290.42 1.58 288.80 2.48Q287.18 3.38 286.26 4.98Q285.34 6.58 285.34 8.54L285.34 8.54Q285.34 10.51 286.26 12.11Q287.18 13.70 288.80 14.60Q290.42 15.50 292.42 15.50L292.42 15.50ZM318.62 16.94L316.68 16.94L312.84 11.54Q312.19 11.62 311.50 11.62L311.50 11.62L306.98 11.62L306.98 16.94L305.21 16.94L305.21 0.14L311.50 0.14Q314.71 0.14 316.54 1.68Q318.36 3.22 318.36 5.90L318.36 5.90Q318.36 7.87 317.36 9.23Q316.37 10.58 314.52 11.18L314.52 11.18L318.62 16.94ZM311.45 10.10Q313.94 10.10 315.26 9Q316.58 7.90 316.58 5.90L316.58 5.90Q316.58 3.86 315.26 2.77Q313.94 1.68 311.45 1.68L311.45 1.68L306.98 1.68L306.98 10.10L311.45 10.10ZM340.54 0Q343.42 0 345.02 1.66Q346.63 3.31 346.63 6.46L346.63 6.46L346.63 16.94L344.88 16.94L344.88 6.50Q344.88 4.06 343.64 2.82Q342.41 1.58 340.27 1.58L340.27 1.58Q338.02 1.58 336.74 2.89Q335.47 4.20 335.47 6.89L335.47 6.89L335.47 16.94L333.72 16.94L333.72 6.50Q333.72 4.06 332.52 2.82Q331.32 1.58 329.18 1.58L329.18 1.58Q326.90 1.58 325.62 2.89Q324.34 4.20 324.34 6.89L324.34 6.89L324.34 16.94L322.56 16.94L322.56 0.14L324.26 0.14L324.26 2.95Q324.96 1.51 326.33 0.76Q327.70 0 329.57 0L329.57 0Q331.54 0 332.94 0.83Q334.34 1.66 334.97 3.14L334.97 3.14Q335.69 1.61 337.14 0.80Q338.59 0 340.54 0L340.54 0Z" transform="translate(12 17.957)"></path><line x1="370.633" y1="0" x2="370.633" y2="100%" stroke="#ff6506" stroke-width="3"></line><g fill="#00005f" color="#00005f" transform="translate(384.133, 12) scale(0.659091)"><svg width="44.0" height="44.0" x="0.0" y="0.0" viewBox="0 0 44 44"><path fill="currentColor" fill-rule="evenodd" d="M38.728 38.728c-4.084 4.085-10.73 4.085-14.814 0l-.444-.397c-.097-.097-.916-.91-1.519-2.168a8.669 8.669 0 0 1-1.513 2.212l-.353.353c-4.084 4.085-10.73 4.085-14.814 0-4.084-4.084-4.084-10.73 0-14.814l11.891-11.89.857.856-11.89 11.891c-3.613 3.612-3.613 9.489 0 13.1 3.611 3.614 9.488 3.614 13.1 0l.371-.372c.938-.973 1.646-2.475 1.698-4.023 0-.045.004-.09.005-.135.01-1.21-.385-2.435-1.398-3.45l-1.888-1.886-.18-.194-3.395-3.393.857-.857 4.739 4.739.397.405c.703.704 1.202 1.403 1.545 2.087.345-.66.834-1.335 1.517-2.018l.065-.073 11.892-11.89a5.851 5.851 0 0 0 0-8.265 5.85 5.85 0 0 0-8.263 0l-.353.354-.857-.857.353-.353c2.75-2.75 7.226-2.75 9.976 0 2.751 2.75 2.751 7.226 0 9.976L24.418 29.558l-.375.377c-2.38 2.38-1.446 5.788.295 7.527l.433.41c3.612 3.613 9.488 3.613 13.1 0 3.613-3.612 3.613-9.489 0-13.1l-.353-.354.857-.857.353.354c4.084 4.084 4.084 10.73 0 14.813zM15.6 10.461l-5.14 5.14-.352-.353a3.639 3.639 0 0 1 0-5.14 3.638 3.638 0 0 1 5.14 0l.352.353zm1.21-1.914a5.849 5.849 0 0 0-8.263 0 5.85 5.85 0 0 0 0 8.263l.352.353-.856.856-.353-.352c-2.75-2.751-2.75-7.227 0-9.978 2.75-2.75 7.226-2.75 9.976 0l11.892 11.892-.857.856L16.81 8.547zM22 16.86L27.138 22l-5.14 5.139L16.86 22 22 16.86zM10.46 28.4l5.14 5.138-.353.353a3.638 3.638 0 0 1-5.139 0 3.639 3.639 0 0 1 0-5.14l.353-.351zm-.78-2.344l-1.134 1.133a5.85 5.85 0 0 0 0 8.264 5.85 5.85 0 0 0 8.263 0l.353-.353c1.741-1.74-.354-3.473-1.362-4.482l-.657-.661-3.12-3.121.856-.856 4.15 4.15.328.329c3.052 3.05.899 5.26.662 5.497l-.353.353c-2.75 2.752-7.226 2.75-9.977 0-2.75-2.75-2.75-7.226 0-9.977l11.892-11.89.856.857-5.92 5.92-4.837 4.837zM28.399 10.46l.353-.353a3.64 3.64 0 0 1 5.14 0 3.64 3.64 0 0 1 0 5.14l-.353.352-5.14-5.14zM5.271 5.27c4.084-4.084 10.73-4.084 14.814 0l11.89 11.89-.856.858L19.23 6.128c-3.613-3.612-9.489-3.612-13.1 0-3.613 3.612-3.613 9.489 0 13.1l.352.353-.857.857-.353-.352C1.187 16 1.187 9.356 5.271 5.27zm28.62 28.62a3.64 3.64 0 0 1-5.14 0l-.352-.352 5.14-5.14.352.352a3.64 3.64 0 0 1 0 5.14zm-9.977-28.62c4.085-4.084 10.73-4.084 14.814 0s4.084 10.73 0 14.814L26.837 31.976c-.91.911-1.132 1.992-.053 3.083l.406.394a5.85 5.85 0 0 0 8.263 0 5.85 5.85 0 0 0 0-8.263l-.352-.353.856-.856.353.353a7.061 7.061 0 0 1 0 9.976c-2.75 2.75-7.227 2.75-9.977 0 0 0-.173-.146-.407-.382-.215-.218-2.358-2.395.055-4.808l11.89-11.891c3.613-3.612 3.613-9.489 0-13.101-3.611-3.612-9.488-3.612-13.1 0l-.353.353-.856-.856.352-.354zM39.938 22l.353-.353c4.945-4.946 4.945-12.992 0-17.938-4.946-4.945-12.992-4.945-17.938 0L22 4.062l-.353-.353c-4.945-4.945-12.992-4.945-17.938 0-4.945 4.946-4.945 12.992 0 17.938l.353.353-.352.353c-4.946 4.945-4.946 12.991 0 17.938 4.945 4.945 12.992 4.945 17.937 0l.353-.353.353.353c4.946 4.945 12.992 4.945 17.938 0 4.945-4.947 4.945-12.993 0-17.938L39.938 22z"></path></svg></g></svg>